<?xml version="1.0" encoding="utf-8"?>
<!-- Generator: Adobe Illustrator 15.0.0, SVG Export Plug-In  -->
<!DOCTYPE svg PUBLIC "-//W3C//DTD SVG 1.1//EN" "http://www.w3.org/Graphics/SVG/1.1/DTD/svg11.dtd" [
	<!ENTITY ns_flows "http://ns.adobe.com/Flows/1.0/">
]>
<svg version="1.1"
	 xmlns="http://www.w3.org/2000/svg" xmlns:xlink="http://www.w3.org/1999/xlink" xmlns:a="http://ns.adobe.com/AdobeSVGViewerExtensions/3.0/"
	 x="0px" y="0px" width="160px" height="50px" viewBox="0 0 160 50" enable-background="new 0 0 160 50" xml:space="preserve">
<defs>
</defs>
<path id="Path_11_" fill="#0D6980" d="M7.975,7.338c0.058-0.347,0.307-0.598,0.598-0.6h4.531c0.182,0.002,0.354,0.103,0.469,0.274
	c0.115,0.172,0.163,0.397,0.128,0.616L11.449,21.45c-0.034,0.218,0.013,0.444,0.129,0.616c0.115,0.172,0.287,0.272,0.469,0.274
	h7.215c0.29-0.002,0.539-0.251,0.598-0.598L22,8.659l0,0V8.026c0-2.128-0.692-4.17-1.925-5.675C18.842,0.846,17.171,0,15.428,0H0
	v32.437C-0.003,35.051,1.04,37.5,2.793,39L7.975,7.338z"/>
<path id="Path_10_" fill="#7CE394" d="M28.103,11l-5.3,32.322c-0.058,0.348-0.308,0.598-0.598,0.6h-4.492
	c-0.182-0.002-0.354-0.103-0.469-0.273c-0.116-0.172-0.163-0.396-0.129-0.615l2.16-13.225c0.034-0.218-0.013-0.443-0.128-0.614
	c-0.116-0.171-0.288-0.272-0.47-0.274h-7.216c-0.291,0.003-0.54,0.253-0.598,0.6L9,41.359l0,0v0.631C9,46.414,11.942,50,15.572,50
	H31V17.632C30.999,14.972,29.913,12.487,28.103,11z"/>
<polygon id="Path_9_" fill="#383838" points="51,12 51,30 47.72,30 47.72,22.62 41.28,22.62 41.28,30 38,30 38,12 41.28,12 
	41.28,19.095 47.72,19.095 47.72,12 "/>
<path id="Shape_7_" fill="#383838" d="M54,20.999C54,15.829,57.384,12,62,12s8,3.804,8,8.999C70,26.193,66.595,30,62,30
	S54,26.171,54,20.999z M66.574,20.999c0-3.305-1.963-5.567-4.574-5.567s-4.574,2.263-4.574,5.567c0,3.304,1.963,5.569,4.574,5.569
	S66.574,24.306,66.574,20.999z"/>
<path id="Shape_6_" fill="#383838" d="M86,18.534c0,4.009-2.506,6.503-6.512,6.503H76.47V30H73V12h6.488
	C83.494,12.002,86,14.497,86,18.534z M82.487,18.534c0-1.98-1.071-3.137-3.19-3.137H76.47v6.246h2.827
	C81.416,21.643,82.487,20.486,82.487,18.534L82.487,18.534z"/>
<polygon id="Path_8_" fill="#383838" points="101,12 101,30 99.748,30 90.516,15.397 90.516,30 89,30 89,12 90.25,12 99.502,26.604 
	99.502,12 "/>
<polygon id="Path_7_" fill="#383838" points="116,28.354 116,30 106,30 106,12 115.697,12 115.697,13.646 107.495,13.646 
	107.495,20.046 114.809,20.046 114.809,21.666 107.495,21.666 107.495,28.352 "/>
<path id="Shape_5_" fill="#383838" d="M132,18.177c0,3.826-2.164,6.141-5.743,6.141h-3.774V30H121V12h5.262
	C129.836,12.005,132,14.319,132,18.177z M130.514,18.177c0-2.88-1.485-4.526-4.297-4.526h-3.734v9h3.738
	C129.032,22.648,130.514,21.002,130.514,18.177z"/>
<path id="Shape_4_" fill="#383838" d="M144.592,25.191h-8.205L134.62,30H133l6.732-18h1.535L148,30h-1.641L144.592,25.191z
	 M144.023,23.648l-3.531-9.666l-3.535,9.666H144.023z"/>
<polygon id="Path_6_" fill="#383838" points="150,12 151.586,12 151.586,28.354 160,28.354 160,30 150,30 "/>
<path fill="#308EA2" d="M38.175,33.933h0.792v5.41h2.593V40h-3.385V33.933z"/>
<path fill="#308EA2" d="M44.7,37.966c0.018,1.071,0.693,1.512,1.495,1.512c0.567,0,0.918-0.099,1.207-0.225l0.144,0.567
	c-0.279,0.126-0.766,0.278-1.458,0.278c-1.341,0-2.143-0.891-2.143-2.205s0.774-2.341,2.043-2.341c1.431,0,1.8,1.242,1.8,2.044
	c0,0.162-0.009,0.278-0.027,0.369H44.7z M47.023,37.398c0.009-0.495-0.207-1.278-1.098-1.278c-0.811,0-1.152,0.729-1.215,1.278
	H47.023z"/>
<path fill="#308EA2" d="M51.702,34.599v1.044h1.134v0.604h-1.134v2.35c0,0.54,0.153,0.846,0.594,0.846
	c0.216,0,0.342-0.018,0.459-0.054l0.036,0.604c-0.153,0.054-0.396,0.107-0.702,0.107c-0.369,0-0.666-0.126-0.855-0.333
	c-0.216-0.243-0.306-0.63-0.306-1.143v-2.377h-0.675v-0.604h0.675v-0.811L51.702,34.599z"/>
<path fill="#308EA2" d="M60.405,34.599H58.56v-0.666h4.492v0.666h-1.854V40h-0.792V34.599z"/>
<path fill="#308EA2" d="M65.616,33.608h0.792v2.728h0.018c0.126-0.226,0.324-0.433,0.567-0.567c0.234-0.135,0.513-0.216,0.81-0.216
	c0.585,0,1.521,0.36,1.521,1.854V40h-0.792v-2.503c0-0.702-0.261-1.287-1.008-1.287c-0.513,0-0.91,0.36-1.063,0.783
	c-0.045,0.117-0.054,0.234-0.054,0.378V40h-0.792V33.608z"/>
<path fill="#308EA2" d="M73.032,37.966c0.018,1.071,0.693,1.512,1.495,1.512c0.567,0,0.918-0.099,1.207-0.225l0.144,0.567
	c-0.279,0.126-0.766,0.278-1.458,0.278c-1.341,0-2.143-0.891-2.143-2.205s0.774-2.341,2.043-2.341c1.432,0,1.8,1.242,1.8,2.044
	c0,0.162-0.009,0.278-0.027,0.369H73.032z M75.354,37.398c0.009-0.495-0.207-1.278-1.098-1.278c-0.81,0-1.152,0.729-1.215,1.278
	H75.354z"/>
<path fill="#308EA2" d="M84.229,33.933h0.792v4.06c0,1.611-0.792,2.106-1.837,2.106c-0.297,0-0.648-0.063-0.837-0.144l0.108-0.64
	c0.161,0.063,0.396,0.117,0.666,0.117c0.702,0,1.107-0.314,1.107-1.503V33.933z"/>
<path fill="#308EA2" d="M92.222,37.785c0,1.611-1.126,2.313-2.17,2.313c-1.17,0-2.089-0.864-2.089-2.241
	c0-1.449,0.964-2.305,2.161-2.305C91.375,35.553,92.222,36.462,92.222,37.785z M88.773,37.83c0,0.954,0.54,1.675,1.314,1.675
	c0.756,0,1.323-0.711,1.323-1.692c0-0.738-0.369-1.666-1.306-1.666C89.179,36.146,88.773,37.011,88.773,37.83z"/>
<path fill="#308EA2" d="M98.846,38.803c0,0.459,0.009,0.855,0.035,1.197h-0.702l-0.045-0.711h-0.018
	c-0.198,0.351-0.666,0.81-1.44,0.81c-0.685,0-1.504-0.387-1.504-1.908v-2.548h0.793v2.404c0,0.828,0.261,1.395,0.972,1.395
	c0.531,0,0.9-0.369,1.045-0.729c0.045-0.108,0.071-0.252,0.071-0.405v-2.665h0.793V38.803z"/>
<path fill="#308EA2" d="M102.138,37.002c0-0.513-0.009-0.954-0.036-1.359h0.693l0.036,0.864h0.026
	c0.198-0.585,0.685-0.954,1.216-0.954c0.081,0,0.144,0.009,0.216,0.018v0.748c-0.081-0.019-0.162-0.019-0.27-0.019
	c-0.559,0-0.955,0.414-1.063,1.009c-0.019,0.107-0.027,0.243-0.027,0.369V40h-0.792V37.002z"/>
<path fill="#308EA2" d="M107.097,36.822c0-0.459-0.009-0.819-0.036-1.18h0.702l0.045,0.721h0.019c0.216-0.405,0.72-0.811,1.44-0.811
	c0.603,0,1.539,0.36,1.539,1.854V40h-0.792v-2.512c0-0.702-0.262-1.287-1.009-1.287c-0.513,0-0.918,0.369-1.062,0.81
	c-0.036,0.1-0.055,0.234-0.055,0.369V40h-0.792V36.822z"/>
<path fill="#308EA2" d="M114.513,37.966c0.018,1.071,0.693,1.512,1.494,1.512c0.567,0,0.918-0.099,1.206-0.225l0.145,0.567
	c-0.279,0.126-0.766,0.278-1.459,0.278c-1.341,0-2.143-0.891-2.143-2.205s0.774-2.341,2.044-2.341c1.432,0,1.801,1.242,1.801,2.044
	c0,0.162-0.009,0.278-0.027,0.369H114.513z M116.835,37.398c0.009-0.495-0.207-1.278-1.099-1.278c-0.81,0-1.152,0.729-1.215,1.278
	H116.835z"/>
<path fill="#308EA2" d="M120.849,35.643l0.945,2.575c0.108,0.288,0.216,0.63,0.288,0.891h0.018c0.081-0.261,0.172-0.594,0.279-0.909
	l0.864-2.557h0.837l-1.188,3.106c-0.567,1.494-0.955,2.25-1.495,2.728c-0.396,0.333-0.774,0.468-0.972,0.504l-0.198-0.657
	c0.198-0.063,0.459-0.188,0.693-0.387c0.216-0.171,0.477-0.478,0.666-0.883c0.036-0.081,0.063-0.144,0.063-0.188
	s-0.018-0.108-0.063-0.207l-1.603-4.016H120.849z"/>
<path fill="#308EA2" d="M130.694,34.022c0.342-0.081,0.891-0.136,1.431-0.136c0.783,0,1.288,0.136,1.657,0.441
	c0.314,0.234,0.513,0.595,0.513,1.071c0,0.595-0.396,1.107-1.026,1.333v0.026c0.576,0.136,1.252,0.612,1.252,1.513
	c0,0.522-0.207,0.928-0.522,1.216c-0.414,0.387-1.099,0.566-2.089,0.566c-0.54,0-0.954-0.036-1.215-0.071V34.022z M131.478,36.507
	h0.711c0.819,0,1.306-0.441,1.306-1.026c0-0.702-0.531-0.99-1.324-0.99c-0.359,0-0.566,0.027-0.692,0.054V36.507z M131.478,39.406
	c0.162,0.026,0.378,0.035,0.657,0.035c0.81,0,1.557-0.297,1.557-1.179c0-0.819-0.711-1.171-1.566-1.171h-0.647V39.406z"/>
<path fill="#308EA2" d="M138.003,37.966c0.018,1.071,0.693,1.512,1.494,1.512c0.567,0,0.918-0.099,1.206-0.225l0.145,0.567
	c-0.279,0.126-0.766,0.278-1.459,0.278c-1.341,0-2.143-0.891-2.143-2.205s0.774-2.341,2.044-2.341c1.432,0,1.801,1.242,1.801,2.044
	c0,0.162-0.009,0.278-0.027,0.369H138.003z M140.325,37.398c0.009-0.495-0.207-1.278-1.099-1.278c-0.81,0-1.152,0.729-1.215,1.278
	H140.325z"/>
<path fill="#308EA2" d="M147.777,39.36c0,1.009-0.207,1.612-0.622,1.999c-0.432,0.387-1.044,0.522-1.593,0.522
	c-0.522,0-1.099-0.126-1.449-0.36l0.197-0.612c0.288,0.189,0.738,0.352,1.278,0.352c0.811,0,1.405-0.424,1.405-1.531v-0.477h-0.019
	c-0.234,0.405-0.711,0.729-1.387,0.729c-1.08,0-1.854-0.919-1.854-2.125c0-1.477,0.964-2.305,1.972-2.305
	c0.757,0,1.161,0.387,1.359,0.747h0.019l0.026-0.657h0.702c-0.026,0.307-0.035,0.666-0.035,1.188V39.36z M146.984,37.362
	c0-0.135-0.009-0.252-0.045-0.352c-0.144-0.468-0.521-0.846-1.107-0.846c-0.756,0-1.296,0.639-1.296,1.647
	c0,0.855,0.44,1.566,1.287,1.566c0.495,0,0.937-0.307,1.099-0.811c0.045-0.135,0.063-0.288,0.063-0.423V37.362z"/>
<path fill="#308EA2" d="M151.889,34.418c0,0.271-0.188,0.486-0.504,0.486c-0.288,0-0.477-0.216-0.477-0.486
	c0-0.27,0.197-0.495,0.495-0.495C151.691,33.923,151.889,34.14,151.889,34.418z M151.007,40v-4.357h0.792V40H151.007z"/>
<path fill="#308EA2" d="M155.093,36.822c0-0.459-0.009-0.819-0.036-1.18h0.702l0.045,0.721h0.019c0.216-0.405,0.72-0.811,1.44-0.811
	c0.603,0,1.539,0.36,1.539,1.854V40h-0.792v-2.512c0-0.702-0.262-1.287-1.009-1.287c-0.513,0-0.918,0.369-1.062,0.81
	c-0.036,0.1-0.055,0.234-0.055,0.369V40h-0.792V36.822z"/>
</svg>
